<?xml version="1.0" standalone="no"?>
<!DOCTYPE svg PUBLIC "-//W3C//DTD SVG 20010904//EN"
 "http://www.w3.org/TR/2001/REC-SVG-20010904/DTD/svg10.dtd">
<svg version="1.0" xmlns="http://www.w3.org/2000/svg"
 width="200.000000pt" height="200.000000pt" viewBox="0 0 200.000000 200.000000"
 preserveAspectRatio="xMidYMid meet">
<metadata>
Created by potrace 1.15, written by Peter Selinger 2001-2017
</metadata>
<g transform="translate(0.000000,200.000000) scale(0.100000,-0.100000)"
fill="#000000" stroke="none">
<path d="M720 1879 c-234 -25 -307 -85 -416 -344 -21 -49 -39 -91 -39 -92 -1
-2 -19 6 -40 17 -25 13 -59 20 -93 20 -46 0 -58 -4 -83 -29 -27 -28 -29 -34
-29 -111 0 -72 3 -83 24 -105 14 -14 42 -27 65 -31 l40 -6 -19 -39 c-44 -85
-50 -138 -50 -437 l0 -284 34 -34 c34 -34 34 -34 128 -34 54 0 103 6 118 13
32 16 60 72 60 120 l0 37 183 0 184 0 -5 73 c-6 98 10 152 62 203 22 22 46 43
53 45 9 3 10 15 3 43 -17 77 11 146 92 222 63 60 111 79 183 71 52 -5 54 -5
85 34 48 61 100 83 195 83 96 0 139 -18 193 -79 l37 -42 89 7 c84 7 91 9 118
39 25 28 28 39 28 97 0 74 -17 115 -55 132 -39 18 -106 14 -150 -8 -22 -11
-40 -20 -41 -20 0 0 -14 30 -29 68 -140 333 -198 369 -625 377 -118 2 -253 0
-300 -6z m-203 -810 c43 -11 91 -25 106 -31 52 -20 62 -74 22 -113 -23 -24
-31 -25 -134 -25 -102 0 -112 2 -138 24 -24 21 -28 31 -27 77 0 42 5 56 23 71
29 23 53 23 148 -3z"/>
<path d="M1376 1151 c-10 -11 -20 -38 -23 -61 -5 -38 -10 -44 -50 -61 -56 -24
-55 -24 -99 6 -50 34 -67 32 -119 -16 -54 -49 -59 -84 -20 -135 l26 -34 -18
-49 c-16 -47 -19 -50 -63 -56 -68 -10 -80 -26 -80 -106 0 -78 11 -92 88 -104
27 -4 42 -12 42 -21 0 -8 7 -29 16 -45 15 -29 14 -33 -10 -70 -39 -58 -35 -89
19 -138 24 -22 53 -41 62 -41 10 0 38 13 62 29 43 29 44 29 80 13 54 -24 58
-29 64 -75 8 -57 34 -77 102 -77 68 0 94 20 102 77 6 46 10 51 64 75 36 16 37
16 75 -9 54 -37 87 -34 134 12 48 47 51 78 15 133 -24 37 -24 37 -7 85 15 42
21 48 52 52 74 12 85 23 88 99 4 82 -9 101 -73 111 -41 6 -46 10 -65 52 l-20
46 25 38 c37 57 33 87 -18 137 -49 49 -70 52 -121 17 -44 -30 -43 -30 -99 -6
-40 17 -45 23 -50 61 -8 64 -29 80 -102 80 -48 0 -66 -4 -79 -19z m162 -359
c19 -8 45 -31 58 -51 47 -71 44 -148 -8 -207 -41 -46 -77 -64 -133 -64 -53 0
-88 16 -127 57 -52 55 -61 119 -27 190 44 91 139 121 237 75z"/>
</g>
</svg>
