<?xml version="1.0" standalone="no"?>
<!DOCTYPE svg PUBLIC "-//W3C//DTD SVG 20010904//EN"
 "http://www.w3.org/TR/2001/REC-SVG-20010904/DTD/svg10.dtd">
<svg version="1.0" xmlns="http://www.w3.org/2000/svg"
 width="84.000000pt" height="84.000000pt" viewBox="0 0 84.000000 84.000000"
 preserveAspectRatio="xMidYMid meet">
<metadata>
Created by potrace 1.15, written by Peter Selinger 2001-2017
</metadata>
<g transform="translate(0.000000,84.000000) scale(0.100000,-0.100000)"
fill="#000000" stroke="none">
<path d="M330 826 c-214 -48 -358 -259 -321 -472 40 -225 256 -383 473 -345
184 32 317 165 349 349 38 213 -118 431 -336 471 -71 13 -94 13 -165 -3z m220
-134 c25 -13 60 -38 78 -55 34 -32 67 -85 59 -93 -2 -3 -40 7 -83 22 -113 38
-255 38 -368 0 -43 -15 -81 -25 -83 -22 -10 10 29 66 72 104 63 55 113 72 205
69 56 -2 87 -8 120 -25z m-85 -227 c30 -29 32 -68 5 -95 -41 -41 -120 -12
-120 45 0 31 41 75 70 75 12 0 32 -11 45 -25z m-223 -146 c21 -11 50 -37 64
-59 29 -43 48 -110 35 -123 -12 -12 -89 28 -129 67 -38 35 -86 122 -76 137 8
13 57 3 106 -22z m463 21 c9 -15 -40 -102 -77 -136 -43 -41 -117 -79 -130 -66
-12 12 5 75 31 119 23 36 55 59 109 79 45 16 59 17 67 4z"/>
</g>
</svg>
